<mxfile host="app.diagrams.net" modified="2023-03-12T04:23:09.405Z" agent="5.0 (Macintosh; Intel Mac OS X 10_15_7) AppleWebKit/537.36 (KHTML, like Gecko) Chrome/110.0.0.0 Safari/537.36" etag="oDDfMiqK4CPHfs-H8W-C" version="16.6.4" type="github">
  <diagram id="rv_hT8ky0hPS7Sli0W8G" name="Page-1">
    <mxGraphModel dx="971" dy="830" grid="1" gridSize="10" guides="1" tooltips="1" connect="1" arrows="1" fold="1" page="1" pageScale="1" pageWidth="1169" pageHeight="827" math="0" shadow="0">
      <root>
        <mxCell id="0" />
        <mxCell id="1" parent="0" />
      </root>
    </mxGraphModel>
  </diagram>
</mxfile>
